<svg width="20" height="24" viewBox="0 0 20 24" fill="none" xmlns="http://www.w3.org/2000/svg">
<path d="M10.5992 1.09685C10.4339 0.949928 10.2204 0.868774 9.9993 0.868774C9.77815 0.868774 9.56469 0.949928 9.3994 1.09685C8.53929 1.85902 7.8533 2.7974 7.38804 3.84823C6.92278 4.89905 6.68914 6.03771 6.703 7.18685C6.70437 7.30727 6.73679 7.42531 6.79712 7.52954C6.85746 7.63377 6.94366 7.72067 7.0474 7.78185C7.95462 8.31835 8.77466 8.99014 9.4792 9.77405C9.54484 9.84691 9.62506 9.90518 9.71465 9.94506C9.80425 9.98493 9.90123 10.0055 9.9993 10.0055C10.0974 10.0055 10.1943 9.98493 10.2839 9.94506C10.3735 9.90518 10.4538 9.84691 10.5194 9.77405C11.2241 8.99114 12.0442 8.32029 12.9512 7.78465C13.0547 7.7233 13.1406 7.63632 13.2007 7.5321C13.2608 7.42788 13.293 7.30994 13.2942 7.18965C13.3084 6.04038 13.0751 4.90152 12.6101 3.85044C12.1451 2.79937 11.4592 1.86071 10.5992 1.09825M0.222401 15.0926C0.211459 14.9707 0.224766 14.8477 0.261553 14.7309C0.29834 14.6141 0.357882 14.5057 0.436745 14.412C0.515608 14.3183 0.612235 14.2412 0.721057 14.185C0.829878 14.1288 0.948742 14.0947 1.0708 14.0846C2.93476 13.9287 4.8005 14.3637 6.40329 15.3279C8.00608 16.2921 9.2645 17.7366 10 19.4564C10.7352 17.7366 11.9933 16.292 13.5958 15.3275C15.1984 14.363 17.0639 13.9277 18.9278 14.0832C19.4402 14.1252 19.8238 14.576 19.7762 15.0912C19.5743 17.307 18.5515 19.3673 16.9084 20.8676C15.2654 22.3679 13.1209 23.1998 10.896 23.2H10.245C10.1618 23.1994 10.079 23.1881 9.9986 23.1664C9.91777 23.1882 9.8345 23.1995 9.7508 23.2H9.0998C6.8751 23.1994 4.73096 22.3674 3.08824 20.8671C1.44552 19.3668 0.422865 17.3068 0.221001 15.0912M10 13.1564C9.26472 11.4364 8.0064 9.99158 6.40359 9.02709C4.80078 8.06259 2.93492 7.62739 1.0708 7.78325C0.948742 7.79328 0.829878 7.82738 0.721057 7.88357C0.612235 7.93975 0.515608 8.01692 0.436745 8.11062C0.357882 8.20432 0.29834 8.3127 0.261553 8.42951C0.224766 8.54633 0.211459 8.66927 0.222401 8.79125C0.332766 10.0196 0.697495 11.2115 1.2934 12.2912C1.35352 12.3999 1.44148 12.4907 1.54826 12.5542C1.65504 12.6176 1.77678 12.6516 1.901 12.6524C3.31671 12.6648 4.71468 12.9688 6.00769 13.5455C7.3007 14.1221 8.461 14.9591 9.4162 16.004C9.48949 16.0841 9.58038 16.146 9.6817 16.1849C9.78302 16.2237 9.89199 16.2385 10 16.228C10.1078 16.2383 10.2165 16.2234 10.3175 16.1845C10.4186 16.1457 10.5093 16.0839 10.5824 16.004C11.5376 14.9591 12.6979 14.1221 13.9909 13.5455C15.2839 12.9688 16.6819 12.6648 18.0976 12.6524C18.222 12.6514 18.3438 12.6173 18.4506 12.5536C18.5574 12.4898 18.6453 12.3988 18.7052 12.2898C19.3009 11.2105 19.6656 10.0191 19.7762 8.79125C19.7871 8.66927 19.7738 8.54633 19.737 8.42951C19.7003 8.3127 19.6407 8.20432 19.5619 8.11062C19.483 8.01692 19.3864 7.93975 19.2775 7.88357C19.1687 7.82738 19.0499 7.79328 18.9278 7.78325C17.0639 7.62769 15.1984 8.06304 13.5958 9.02752C11.9933 9.992 10.7352 11.4366 10 13.1564Z" fill="#6ABF4B"/>
</svg>
