<svg width="20" height="20" viewBox="0 0 0.4 0.4" xmlns="http://www.w3.org/2000/svg" fill="none">
  <path fill="#4285F4" d="M.373.204.37.168H.204v.067h.095a.08.08 0 0 1-.035.053v.044h.057A.17.17 0 0 0 .373.203"/>
  <path fill="#34A853" d="M.204.375A.17.17 0 0 0 .321.333L.264.289a.1.1 0 0 1-.06.017.11.11 0 0 1-.099-.072H.046v.045a.18.18 0 0 0 .158.096"/>
  <path fill="#FBBC04" d="M.105.234a.1.1 0 0 1 0-.067V.121H.046a.17.17 0 0 0 0 .157z"/>
  <path fill="#EA4335" d="M.204.094A.1.1 0 0 1 .272.12l.05-.05A.17.17 0 0 0 .204.024.18.18 0 0 0 .047.12l.058.047A.11.11 0 0 1 .204.095z"/>
</svg>
