<svg width="24" height="24" viewBox="0 0 24 24" fill="none" xmlns="http://www.w3.org/2000/svg">
<path d="M13.2336 0.000488281C14.5835 0.0040881 15.2687 0.0112877 15.8603 0.0280869L16.0931 0.0364864C16.3619 0.0460859 16.627 0.0580853 16.9474 0.0724846C18.2242 0.132482 19.0953 0.334072 19.8597 0.630457C20.6516 0.935241 21.3188 1.34802 21.986 2.01399C22.5964 2.61364 23.0685 3.33929 23.3695 4.14028C23.6659 4.90464 23.8675 5.7758 23.9275 7.05373C23.9419 7.37292 23.9539 7.6381 23.9635 7.90809L23.9707 8.14088C23.9887 8.73125 23.9959 9.41641 23.9983 10.7663L23.9995 11.6615V13.2334C24.0024 14.1087 23.9932 14.9839 23.9719 15.8589L23.9647 16.0917C23.9551 16.3617 23.9431 16.6269 23.9287 16.946C23.8687 18.224 23.6647 19.0939 23.3695 19.8595C23.0685 20.6605 22.5964 21.3861 21.986 21.9858C21.3863 22.5962 20.6607 23.0683 19.8597 23.3693C19.0953 23.6657 18.2242 23.8673 16.9474 23.9273L16.0931 23.9633L15.8603 23.9705C15.2687 23.9873 14.5835 23.9957 13.2336 23.9981L12.3385 23.9993H10.7677C9.8921 24.0024 9.01646 23.9932 8.14107 23.9717L7.90828 23.9645C7.62343 23.9537 7.33864 23.9413 7.05393 23.9273C5.77719 23.8673 4.90603 23.6657 4.14047 23.3693C3.33991 23.0682 2.61468 22.596 2.01538 21.9858C1.40455 21.3862 0.931966 20.6606 0.630651 19.8595C0.334266 19.0951 0.132676 18.224 0.0726788 16.946L0.0366807 16.0917L0.0306811 15.8589C0.00856149 14.9839 -0.00143908 14.1087 0.000682522 13.2334V10.7663C-0.00263878 9.89111 0.00616171 9.01587 0.0270813 8.14088L0.0354808 7.90809C0.0450803 7.6381 0.0570797 7.37292 0.071479 7.05373C0.131476 5.7758 0.333066 4.90584 0.629451 4.14028C0.931469 3.33896 1.40488 2.61328 2.01658 2.01399C2.61553 1.40388 3.34034 0.93173 4.14047 0.630457C4.90603 0.334072 5.77599 0.132482 7.05393 0.0724846C7.37311 0.0580853 7.6395 0.0460859 7.90828 0.0364864L8.14107 0.0292867C9.01606 0.00796715 9.8913 -0.00123327 10.7665 0.00168813L13.2336 0.000488281ZM12.0001 6.00019C10.4089 6.00019 8.88281 6.63229 7.75765 7.75746C6.63249 8.88262 6.00038 10.4087 6.00038 11.9999C6.00038 13.5911 6.63249 15.1171 7.75765 16.2423C8.88281 17.3675 10.4089 17.9996 12.0001 17.9996C13.5913 17.9996 15.1173 17.3675 16.2425 16.2423C17.3677 15.1171 17.9998 13.5911 17.9998 11.9999C17.9998 10.4087 17.3677 8.88262 16.2425 7.75746C15.1173 6.63229 13.5913 6.00019 12.0001 6.00019ZM12.0001 8.40006C12.4728 8.39999 12.9409 8.49302 13.3777 8.67386C13.8145 8.85469 14.2114 9.11979 14.5457 9.454C14.88 9.78822 15.1453 10.185 15.3262 10.6217C15.5072 11.0585 15.6004 11.5265 15.6005 11.9993C15.6006 12.472 15.5075 12.9401 15.3267 13.3769C15.1459 13.8137 14.8808 14.2106 14.5466 14.5449C14.2123 14.8792 13.8155 15.1445 13.3788 15.3255C12.9421 15.5064 12.474 15.5996 12.0013 15.5997C11.0465 15.5997 10.1309 15.2204 9.45582 14.5453C8.78072 13.8702 8.40146 12.9546 8.40146 11.9999C8.40146 11.0452 8.78072 10.1295 9.45582 9.45443C10.1309 8.77933 11.0465 8.40006 12.0013 8.40006M18.301 4.20028C17.9032 4.20028 17.5216 4.3583 17.2404 4.63959C16.9591 4.92088 16.801 5.3024 16.801 5.7002C16.801 6.09801 16.9591 6.47952 17.2404 6.76081C17.5216 7.0421 17.9032 7.20013 18.301 7.20013C18.6988 7.20013 19.0803 7.0421 19.3616 6.76081C19.6429 6.47952 19.8009 6.09801 19.8009 5.7002C19.8009 5.3024 19.6429 4.92088 19.3616 4.63959C19.0803 4.3583 18.6988 4.20028 18.301 4.20028Z" fill="#1E1E1E"/>
</svg>
