<svg width="10" height="17" viewBox="0 0 10 17" fill="none" xmlns="http://www.w3.org/2000/svg">
<path d="M9.65005 8.39734C9.6509 8.287 9.62918 8.17766 9.58625 8.07601C9.54343 7.97463 9.48041 7.88305 9.40103 7.80684L2.15921 0.552028L2.15105 0.543853L2.14174 0.537023C1.94692 0.394211 1.74514 0.314792 1.54009 0.323638C1.33305 0.332569 1.14755 0.430363 0.984986 0.592932L0.984862 0.593056C0.823816 0.754478 0.724789 0.936794 0.711857 1.13918C0.69898 1.3407 0.773043 1.53766 0.909607 1.72604L0.916543 1.73561L0.924892 1.74397L7.56479 8.39568L0.605207 15.1977L0.605175 15.1977L0.602617 15.2003C0.514218 15.291 0.396756 15.4505 0.360528 15.6584C0.322776 15.875 0.377172 16.123 0.598083 16.3708L0.598198 16.3709C0.831064 16.6316 1.10778 16.6775 1.33953 16.6366C1.56093 16.5975 1.74291 16.48 1.82356 16.4045L1.82358 16.4045L1.82596 16.4022C4.25591 14.0243 6.78085 11.5573 9.4008 9.00137L9.40234 8.99985C9.48133 8.92052 9.54388 8.82637 9.58639 8.72281C9.62878 8.61955 9.65041 8.50895 9.65005 8.39734ZM9.65005 8.39734C9.65005 8.39701 9.65005 8.39668 9.65005 8.39635L9.50005 8.397L9.65005 8.39832C9.65005 8.39799 9.65005 8.39767 9.65005 8.39734Z" fill="white" stroke="white" stroke-width="0.3"/>
</svg>
