<svg width="20px" height="20px" viewBox="0 0 0.4 0.4" fill="none" xmlns="http://www.w3.org/2000/svg"><path clip-rule="evenodd" d="M0.225 0H0.175l-0.014 0.055a0.15 0.15 0 0 0 -0.036 0.015L0.076 0.041 0.041 0.076l0.029 0.049a0.15 0.15 0 0 0 -0.015 0.036l-0.055 0.014v0.05l0.055 0.014q0.005 0.019 0.015 0.036l-0.029 0.049 0.035 0.035 0.049 -0.029c0.011 0.007 0.023 0.012 0.036 0.015l0.014 0.055h0.05l0.014 -0.055a0.15 0.15 0 0 0 0.036 -0.015l0.049 0.029 0.035 -0.035 -0.029 -0.049c0.007 -0.011 0.012 -0.023 0.015 -0.036l0.055 -0.014V0.175l-0.055 -0.014a0.15 0.15 0 0 0 -0.015 -0.036l0.029 -0.049 -0.035 -0.035 -0.049 0.029A0.15 0.15 0 0 0 0.239 0.055zM0.2 0.25a0.05 0.05 0 1 0 0 -0.1 0.05 0.05 0 0 0 0 0.1" fill="#030708" fill-rule="evenodd"/></svg>