<svg width="24" height="24" viewBox="0 0 24 24" fill="none" xmlns="http://www.w3.org/2000/svg">
<path d="M18.5867 3.76C17.6754 2.71937 17.1732 1.3832 17.1733 0H13.0533V16.5333C13.0222 17.4283 12.6447 18.2761 12.0004 18.898C11.3561 19.5199 10.4955 19.8672 9.6 19.8667C7.70667 19.8667 6.13333 18.32 6.13333 16.4C6.13333 14.1067 8.34667 12.3867 10.6267 13.0933V8.88C6.02667 8.26667 2 11.84 2 16.4C2 20.84 5.68 24 9.58667 24C13.7733 24 17.1733 20.6 17.1733 16.4V8.01333C18.844 9.21313 20.8498 9.85686 22.9067 9.85333V5.73333C22.9067 5.73333 20.4 5.85333 18.5867 3.76Z" fill="#1E1E1E"/>
</svg>
