<svg width="24" height="24" viewBox="0 0 24 24" fill="none" xmlns="http://www.w3.org/2000/svg">
<path d="M9.6 16L15.828 12.4L9.6 8.8V16ZM23.472 6.604C23.628 7.168 23.736 7.924 23.808 8.884C23.892 9.844 23.928 10.672 23.928 11.392L24 12.4C24 15.028 23.808 16.96 23.472 18.196C23.172 19.276 22.476 19.972 21.396 20.272C20.832 20.428 19.8 20.536 18.216 20.608C16.656 20.692 15.228 20.728 13.908 20.728L12 20.8C6.972 20.8 3.84 20.608 2.604 20.272C1.524 19.972 0.828 19.276 0.528 18.196C0.372 17.632 0.264 16.876 0.192 15.916C0.108 14.956 0.0719999 14.128 0.0719999 13.408L0 12.4C0 9.772 0.192 7.84 0.528 6.604C0.828 5.524 1.524 4.828 2.604 4.528C3.168 4.372 4.2 4.264 5.784 4.192C7.344 4.108 8.772 4.072 10.092 4.072L12 4C17.028 4 20.16 4.192 21.396 4.528C22.476 4.828 23.172 5.524 23.472 6.604Z" fill="#1E1E1E"/>
</svg>
